<svg id="Layer_1" enable-background="new 0 0 256 256" height="512" viewBox="0 0 256 256" width="512" xmlns="http://www.w3.org/2000/svg"><path d="m226.508 42.88c-1.58 0-3.1-.28-4.5-.8v63.1h-30c-2.76 0-5 2.24-5 5s2.24 5 5 5h35c2.76 0 5-2.24 5-5v-68.52c-1.669.78-3.53 1.22-5.5 1.22z" fill="#ef6d7a"/><path d="m232.814 40.395c-.433-.275-.976-.311-1.441-.094-2.778 1.298-6.028 1.418-8.843.372-.46-.171-.976-.106-1.378.175-.403.28-.644.74-.644 1.231v61.6h-28.5c-3.584 0-6.5 2.916-6.5 6.5s2.916 6.5 6.5 6.5h35c3.584 0 6.5-2.916 6.5-6.5v-68.519c0-.513-.261-.99-.694-1.265zm-2.306 69.785c0 1.93-1.57 3.5-3.5 3.5h-35c-1.93 0-3.5-1.57-3.5-3.5s1.57-3.5 3.5-3.5h30c.829 0 1.5-.671 1.5-1.5v-61.11c2.291.482 4.744.398 7-.25z" fill="#3a312a"/><path d="m51.008 103.12c-2.76 0-5 2.24-5 5v101h10v-101c0-2.76-2.24-5-5-5z" fill="#87796f"/><path d="m51.008 101.62c-3.584 0-6.5 2.916-6.5 6.5v43.269c0 .829.671 1.5 1.5 1.5s1.5-.671 1.5-1.5v-43.269c0-1.93 1.57-3.5 3.5-3.5s3.5 1.57 3.5 3.5v99.5h-7v-42.008c0-.829-.671-1.5-1.5-1.5s-1.5.671-1.5 1.5v43.508c0 .829.671 1.5 1.5 1.5h10c.829 0 1.5-.671 1.5-1.5v-101c0-3.584-2.916-6.5-6.5-6.5z" fill="#3a312a"/><path d="m205.008 103.12c-2.76 0-5 2.24-5 5v101h10v-101c0-2.76-2.24-5-5-5z" fill="#87796f"/><path d="m205.008 101.62c-3.584 0-6.5 2.916-6.5 6.5v101c0 .829.671 1.5 1.5 1.5h10c.829 0 1.5-.671 1.5-1.5v-101c0-3.584-2.916-6.5-6.5-6.5zm3.5 106h-7v-99.5c0-1.93 1.57-3.5 3.5-3.5s3.5 1.57 3.5 3.5z" fill="#3a312a"/><circle cx="226.508" cy="29.88" fill="#8ac5dc" r="13"/><path d="m226.508 15.38c-7.995 0-14.5 6.505-14.5 14.5s6.505 14.5 14.5 14.5 14.5-6.505 14.5-14.5-6.505-14.5-14.5-14.5zm0 26c-6.341 0-11.5-5.159-11.5-11.5s5.159-11.5 11.5-11.5 11.5 5.159 11.5 11.5-5.158 11.5-11.5 11.5z" fill="#3a312a"/><path d="m47.393 26.557c-.974 11.564-13.025 13.389-13.025 13.389 10.347.487 12.925 14.059 12.925 14.059.221-9.677 13.321-14.202 13.321-14.202-9.813-.586-13.221-13.246-13.221-13.246z" fill="#d5de58"/><path d="m60.704 38.306c-8.604-.514-11.831-12.024-11.863-12.14-.191-.703-.858-1.167-1.584-1.102-.725.066-1.298.642-1.359 1.367-.86 10.215-11.314 11.963-11.755 12.032-.763.115-1.313.79-1.273 1.56s.657 1.384 1.428 1.421c9.028.425 11.498 12.718 11.522 12.842.137.711.759 1.217 1.472 1.217.042 0 .084-.002.126-.005.764-.064 1.357-.693 1.375-1.46.195-8.508 12.192-12.777 12.313-12.819.675-.235 1.092-.915.994-1.623-.098-.706-.682-1.247-1.396-1.29zm-13.566 10.346c-1.357-3.131-3.709-6.908-7.587-8.877 2.931-1.404 6.409-3.913 8.202-8.272 1.551 3.071 4.199 6.88 8.334 8.722-3.007 1.64-6.922 4.406-8.949 8.427z" fill="#3a312a"/><path d="m25.694 43.538c-.689 8.179-9.212 9.471-9.212 9.471 7.318.344 9.142 9.944 9.142 9.944.156-6.844 9.422-10.045 9.422-10.045-6.941-.416-9.352-9.37-9.352-9.37z" fill="#d5de58"/><path d="m35.135 51.41c-5.766-.345-7.972-8.185-7.993-8.264-.19-.702-.857-1.169-1.582-1.102-.726.065-1.299.642-1.36 1.368-.579 6.87-7.646 8.066-7.942 8.113-.763.115-1.313.79-1.273 1.561.04.77.657 1.384 1.427 1.421 6.035.284 7.724 8.644 7.739 8.726.135.712.759 1.22 1.473 1.22.041 0 .083-.001.125-.005.765-.063 1.358-.694 1.376-1.461.13-5.709 8.332-8.634 8.412-8.662.677-.234 1.094-.913.996-1.622s-.683-1.25-1.398-1.293zm-9.584 6.795c-.924-1.886-2.34-3.947-4.447-5.28 1.855-1.042 3.697-2.63 4.871-4.917 1.057 1.874 2.654 3.955 4.941 5.224-1.85 1.101-3.989 2.741-5.365 4.973z" fill="#3a312a"/><path d="m25.694 16.88c-.689 8.179-9.212 9.471-9.212 9.471 7.318.344 9.142 9.944 9.142 9.944.156-6.845 9.422-10.045 9.422-10.045-6.941-.416-9.352-9.37-9.352-9.37z" fill="#d5de58"/><path d="m35.136 24.752c-5.766-.345-7.972-8.186-7.994-8.265-.19-.702-.857-1.17-1.582-1.102-.726.065-1.299.642-1.36 1.368-.579 6.871-7.646 8.067-7.942 8.114-.763.115-1.313.79-1.273 1.56s.657 1.384 1.428 1.421c6.035.284 7.723 8.644 7.739 8.726.135.713.759 1.22 1.473 1.22.041 0 .083-.001.125-.005.765-.063 1.358-.694 1.376-1.461.13-5.709 8.331-8.634 8.412-8.662.676-.234 1.094-.913.996-1.622-.099-.707-.684-1.249-1.398-1.292zm-9.585 6.795c-.924-1.885-2.34-3.947-4.447-5.28 1.855-1.041 3.697-2.63 4.871-4.916 1.057 1.873 2.654 3.954 4.941 5.224-1.85 1.101-3.989 2.74-5.365 4.972z" fill="#3a312a"/><path d="m227.518 221.12h-199.02c-6.627 0-12 5.373-12 12v6h223.02v-6c0-6.628-5.372-12-12-12z" fill="#87796f"/><path d="m227.518 219.62h-199.02c-7.444 0-13.5 6.056-13.5 13.5v6c0 .829.671 1.5 1.5 1.5h223.02c.829 0 1.5-.671 1.5-1.5v-6c0-7.444-6.056-13.5-13.5-13.5zm10.5 18h-220.02v-4.5c0-5.789 4.711-10.5 10.5-10.5h199.02c5.79 0 10.5 4.711 10.5 10.5z" fill="#3a312a"/><path d="m211.877 209.12h-167.754c-6.627 0-12 5.373-12 12h191.754c0-6.628-5.372-12-12-12z" fill="#87796f"/><path d="m211.877 207.62h-42.227c-.829 0-1.5.671-1.5 1.5s.671 1.5 1.5 1.5h42.227c5.28 0 9.663 3.918 10.393 9h-188.54c.73-5.082 5.113-9 10.393-9h111.727c.829 0 1.5-.671 1.5-1.5s-.671-1.5-1.5-1.5h-111.727c-7.444 0-13.5 6.056-13.5 13.5 0 .829.671 1.5 1.5 1.5h191.754c.829 0 1.5-.671 1.5-1.5 0-7.444-6.056-13.5-13.5-13.5z" fill="#3a312a"/><ellipse cx="128.008" cy="110.12" fill="#f6e2c6" rx="72" ry="72" transform="matrix(.973 -.23 .23 .973 -21.876 32.356)"/><path d="m128.008 36.62c-40.528 0-73.5 32.972-73.5 73.5s32.972 73.5 73.5 73.5 73.5-32.972 73.5-73.5-32.972-73.5-73.5-73.5zm0 144c-38.874 0-70.5-31.626-70.5-70.5s31.626-70.5 70.5-70.5 70.5 31.626 70.5 70.5-31.626 70.5-70.5 70.5z" fill="#3a312a"/><ellipse cx="149.195" cy="135.396" fill="#d5de58" rx="16.25" ry="16.25" transform="matrix(.987 -.16 .16 .987 -19.762 25.647)"/><path d="m149.195 117.647c-9.787 0-17.75 7.962-17.75 17.749s7.962 17.75 17.75 17.75c9.787 0 17.749-7.962 17.749-17.75s-7.962-17.749-17.749-17.749zm0 32.499c-8.133 0-14.75-6.617-14.75-14.75s6.617-14.749 14.75-14.749 14.749 6.617 14.749 14.749c.001 8.133-6.616 14.75-14.749 14.75z" fill="#3a312a"/><ellipse cx="91.111" cy="131.365" fill="#d5de58" rx="16.25" ry="16.25" transform="matrix(.071 -.998 .998 .071 -46.382 212.935)"/><path d="m91.111 113.616c-9.787 0-17.749 7.962-17.749 17.75s7.962 17.749 17.749 17.749 17.75-7.962 17.75-17.749-7.963-17.75-17.75-17.75zm0 32.499c-8.133 0-14.749-6.617-14.749-14.749 0-8.133 6.617-14.75 14.749-14.75 8.133 0 14.75 6.617 14.75 14.75 0 8.132-6.617 14.749-14.75 14.749z" fill="#3a312a"/><circle cx="129.481" cy="117.95" fill="#8ac5dc" r="16.25"/><path d="m129.481 100.2c-9.787 0-17.75 7.962-17.75 17.75 0 9.787 7.962 17.75 17.75 17.75s17.75-7.962 17.75-17.75c0-9.787-7.962-17.75-17.75-17.75zm0 32.5c-8.133 0-14.75-6.617-14.75-14.75s6.617-14.75 14.75-14.75 14.75 6.617 14.75 14.75-6.617 14.75-14.75 14.75z" fill="#3a312a"/><circle cx="178.3" cy="132.52" fill="#ef6d7a" r="16.25"/><path d="m178.3 114.77c-9.787 0-17.75 7.962-17.75 17.75 0 9.787 7.962 17.75 17.75 17.75s17.75-7.962 17.75-17.75-7.962-17.75-17.75-17.75zm0 32.5c-8.133 0-14.75-6.617-14.75-14.75s6.617-14.75 14.75-14.75 14.75 6.617 14.75 14.75-6.616 14.75-14.75 14.75z" fill="#3a312a"/><ellipse cx="99.617" cy="157.597" fill="#8ac5dc" rx="16.25" ry="16.25" transform="matrix(.973 -.23 .23 .973 -33.544 27.103)"/><path d="m99.617 139.848c-9.787 0-17.75 7.962-17.75 17.75s7.962 17.75 17.75 17.75 17.75-7.962 17.75-17.75c-.001-9.788-7.963-17.75-17.75-17.75zm0 32.499c-8.133 0-14.75-6.617-14.75-14.75s6.617-14.75 14.75-14.75 14.75 6.617 14.75 14.75c-.001 8.134-6.617 14.75-14.75 14.75z" fill="#3a312a"/><ellipse cx="118.461" cy="138.908" fill="#ef6d7a" rx="16.25" ry="16.25" transform="matrix(.707 -.707 .707 .707 -63.526 124.449)"/><path d="m118.46 121.158c-9.787 0-17.75 7.962-17.75 17.75s7.962 17.75 17.75 17.75c9.787 0 17.75-7.962 17.75-17.75 0-9.787-7.962-17.75-17.75-17.75zm0 32.5c-8.133 0-14.75-6.617-14.75-14.75s6.617-14.75 14.75-14.75 14.75 6.617 14.75 14.75-6.617 14.75-14.75 14.75z" fill="#3a312a"/><circle cx="126.967" cy="165.87" fill="#d5de58" r="16.25"/><path d="m126.967 148.12c-9.787 0-17.75 7.962-17.75 17.75 0 9.787 7.962 17.75 17.75 17.75s17.75-7.962 17.75-17.75c-.001-9.787-7.963-17.75-17.75-17.75zm0 32.5c-8.133 0-14.75-6.617-14.75-14.75s6.617-14.75 14.75-14.75 14.75 6.617 14.75 14.75c-.001 8.133-6.617 14.75-14.75 14.75z" fill="#3a312a"/><ellipse cx="156.467" cy="157.112" fill="#8ac5dc" rx="16.25" ry="16.25" transform="matrix(.973 -.23 .23 .973 -31.911 40.152)"/><g fill="#3a312a"><path d="m156.467 139.362c-9.787 0-17.75 7.962-17.75 17.75s7.962 17.75 17.75 17.75 17.75-7.962 17.75-17.75-7.963-17.75-17.75-17.75zm0 32.499c-8.133 0-14.75-6.617-14.75-14.75s6.617-14.75 14.75-14.75 14.75 6.617 14.75 14.75-6.617 14.75-14.75 14.75z"/><path d="m128.008 36.62c-27.373 0-49.642 32.972-49.642 73.5s22.269 73.5 49.642 73.5 49.642-32.972 49.642-73.5-22.269-73.5-49.642-73.5zm0 144c-25.718 0-46.642-31.626-46.642-70.5s20.923-70.5 46.642-70.5c25.718 0 46.642 31.626 46.642 70.5s-20.923 70.5-46.642 70.5z"/><path d="m142.662 58.832c-2.627-10.133-7.302-22.212-14.653-22.212s-12.025 12.079-14.653 22.212c-3.557 13.719-5.516 31.933-5.516 51.288s1.959 37.57 5.516 51.288c2.627 10.133 7.302 22.212 14.653 22.212s12.026-12.079 14.653-22.212c3.557-13.718 5.516-31.933 5.516-51.288-.001-19.356-1.96-37.57-5.516-51.288zm-2.905 101.823c-3.241 12.501-7.633 19.965-11.749 19.965-4.115 0-8.507-7.463-11.749-19.965-3.495-13.479-5.42-31.427-5.42-50.535s1.925-37.056 5.42-50.535c3.242-12.502 7.634-19.965 11.749-19.965 4.116 0 8.508 7.463 11.749 19.965 3.495 13.479 5.42 31.427 5.42 50.535 0 19.109-1.925 37.055-5.42 50.535z"/><path d="m128.008 60.479c-40.528 0-73.5 22.269-73.5 49.641 0 27.373 32.972 49.642 73.5 49.642s73.5-22.269 73.5-49.642c0-27.372-32.972-49.641-73.5-49.641zm0 96.282c-38.874 0-70.5-20.923-70.5-46.642 0-25.718 31.626-46.641 70.5-46.641s70.5 20.923 70.5 46.641c0 25.719-31.626 46.642-70.5 46.642z"/><path d="m179.296 95.467c-13.718-3.557-31.933-5.516-51.288-5.516s-37.569 1.959-51.288 5.516c-10.133 2.627-22.212 7.302-22.212 14.653s12.079 12.025 22.212 14.653c13.719 3.557 31.933 5.516 51.288 5.516s37.57-1.959 51.288-5.516c10.133-2.628 22.212-7.302 22.212-14.653s-12.079-12.026-22.212-14.653zm-.752 26.402c-13.479 3.495-31.427 5.42-50.535 5.42s-37.056-1.925-50.535-5.42c-12.501-3.242-19.965-7.634-19.965-11.749s7.463-8.507 19.965-11.749c13.479-3.495 31.427-5.42 50.535-5.42s37.056 1.925 50.535 5.42c12.501 3.242 19.965 7.634 19.965 11.749-.001 4.115-7.464 8.507-19.965 11.749z"/></g><path d="m227.52 222.62h-15c5.79 0 10.5 4.71 10.5 10.5v4.5h15v-4.5c0-5.79-4.71-10.5-10.5-10.5z" fill="#695b51"/><path d="m211.88 210.62h-15c5.28 0 9.66 3.92 10.39 9h15c-.73-5.08-5.11-9-10.39-9z" fill="#695b51"/></svg>